<svg width="61" height="27" viewBox="0 0 61 27" fill="none" xmlns="http://www.w3.org/2000/svg">
<path d="M10.796 0.799998V26H6.116V4.724H0.788V0.799998H10.796ZM32.1389 12.752C33.4589 13.352 34.4669 14.168 35.1629 15.2C35.8829 16.208 36.2429 17.396 36.2429 18.764C36.2429 20.3 35.8109 21.644 34.9469 22.796C34.1069 23.948 32.9069 24.836 31.3469 25.46C29.7869 26.06 27.9749 26.36 25.9109 26.36C23.8469 26.36 22.0349 26.06 20.4749 25.46C18.9389 24.836 17.7509 23.948 16.9109 22.796C16.0709 21.644 15.6509 20.3 15.6509 18.764C15.6509 17.396 15.9989 16.208 16.6949 15.2C17.3909 14.168 18.3869 13.352 19.6829 12.752C18.6749 12.2 17.8949 11.48 17.3429 10.592C16.8149 9.68 16.5509 8.636 16.5509 7.46C16.5509 6.044 16.9349 4.808 17.7029 3.752C18.4949 2.696 19.5989 1.88 21.0149 1.304C22.4309 0.727998 24.0629 0.439999 25.9109 0.439999C27.7829 0.439999 29.4269 0.727998 30.8429 1.304C32.2589 1.88 33.3629 2.696 34.1549 3.752C34.9469 4.808 35.3429 6.044 35.3429 7.46C35.3429 8.636 35.0669 9.668 34.5149 10.556C33.9629 11.444 33.1709 12.176 32.1389 12.752ZM25.9109 4.112C24.4469 4.112 23.2829 4.424 22.4189 5.048C21.5789 5.672 21.1589 6.548 21.1589 7.676C21.1589 8.756 21.5789 9.62 22.4189 10.268C23.2829 10.892 24.4469 11.204 25.9109 11.204C27.3989 11.204 28.5749 10.892 29.4389 10.268C30.3029 9.62 30.7349 8.756 30.7349 7.676C30.7349 6.548 30.2909 5.672 29.4029 5.048C28.5389 4.424 27.3749 4.112 25.9109 4.112ZM25.9109 22.688C27.6389 22.688 29.0069 22.328 30.0149 21.608C31.0229 20.888 31.5269 19.892 31.5269 18.62C31.5269 17.372 31.0229 16.388 30.0149 15.668C29.0069 14.948 27.6389 14.588 25.9109 14.588C24.1829 14.588 22.8269 14.948 21.8429 15.668C20.8589 16.388 20.3669 17.372 20.3669 18.62C20.3669 19.892 20.8589 20.888 21.8429 21.608C22.8269 22.328 24.1829 22.688 25.9109 22.688ZM49.7913 26.36C47.7753 26.36 45.9753 25.856 44.3913 24.848C42.8073 23.816 41.5593 22.328 40.6473 20.384C39.7353 18.416 39.2793 16.088 39.2793 13.4C39.2793 10.712 39.7353 8.396 40.6473 6.452C41.5593 4.484 42.8073 2.996 44.3913 1.988C45.9753 0.955998 47.7753 0.439999 49.7913 0.439999C51.8073 0.439999 53.6073 0.955998 55.1913 1.988C56.7993 2.996 58.0593 4.484 58.9713 6.452C59.8833 8.396 60.3393 10.712 60.3393 13.4C60.3393 16.088 59.8833 18.416 58.9713 20.384C58.0593 22.328 56.7993 23.816 55.1913 24.848C53.6073 25.856 51.8073 26.36 49.7913 26.36ZM49.7913 22.292C51.5913 22.292 53.0073 21.548 54.0393 20.06C55.0953 18.572 55.6233 16.352 55.6233 13.4C55.6233 10.448 55.0953 8.228 54.0393 6.74C53.0073 5.252 51.5913 4.508 49.7913 4.508C48.0153 4.508 46.5993 5.252 45.5433 6.74C44.5113 8.228 43.9953 10.448 43.9953 13.4C43.9953 16.352 44.5113 18.572 45.5433 20.06C46.5993 21.548 48.0153 22.292 49.7913 22.292Z" fill="#03283C"/>
</svg>
