<svg width="278" height="69" viewBox="0 0 278 69" fill="none" xmlns="http://www.w3.org/2000/svg">
<g clip-path="url(#clip0_1_7609)">
<path d="M44.7146 34.5458C46.9833 32.6473 48.426 29.7956 48.426 26.607C48.426 23.4187 46.9833 20.567 44.7146 18.6684C44.9746 18.5426 45.2248 18.406 45.4632 18.258C46.968 17.323 48.7441 16.783 50.6465 16.783C56.0759 16.783 60.4772 21.1815 60.4772 26.607C60.4772 32.0328 56.0759 36.4312 50.6465 36.4312C48.7441 36.4312 46.968 35.8912 45.4632 34.9562C45.2248 34.8082 44.9746 34.6717 44.7146 34.5458Z" fill="url(#paint0_linear_1_7609)"/>
<path d="M41.9844 28.1537C42.9992 25.3759 42.8218 22.1853 41.2265 19.4241C39.6312 16.6628 36.9549 14.914 34.0403 14.4034C34.2025 14.1646 34.3508 13.9213 34.4831 13.674C35.3185 12.1123 36.5866 10.7572 38.2341 9.8066C42.9361 7.09373 48.9485 8.70367 51.6631 13.4025C54.3777 18.1013 52.7668 24.1097 48.0647 26.8225C46.4173 27.7731 44.6088 28.1929 42.8378 28.1351C42.5574 28.1259 42.2724 28.1328 41.9844 28.1537Z" fill="url(#paint1_linear_1_7609)"/>
<path d="M36.4211 23.9822C35.9102 21.0694 34.1602 18.395 31.3971 16.8007C28.634 15.2065 25.4414 15.0293 22.6617 16.0434C22.6828 15.7556 22.6895 15.4707 22.6803 15.1905C22.6225 13.4206 23.0426 11.6134 23.9938 9.96693C26.7086 5.26812 32.7208 3.65819 37.4228 6.37105C42.1247 9.08391 43.7358 15.0923 41.021 19.7911C40.0698 21.4375 38.7138 22.7047 37.151 23.5396C36.9037 23.6718 36.6602 23.82 36.4211 23.9822Z" fill="url(#paint2_linear_1_7609)"/>
<path d="M29.5156 23.1492C27.6157 20.882 24.7621 19.4403 21.5715 19.4403C18.3809 19.4403 15.5274 20.882 13.6275 23.1492C13.5017 22.8893 13.365 22.6393 13.2169 22.4011C12.2812 20.8972 11.7408 19.1223 11.7408 17.2211C11.7408 11.7954 16.1422 7.39697 21.5715 7.39697C27.0009 7.39697 31.4022 11.7954 31.4022 17.2211C31.4022 19.1223 30.8618 20.8972 29.9262 22.4011C29.778 22.6393 29.6413 22.8893 29.5156 23.1492Z" fill="url(#paint3_linear_1_7609)"/>
<path d="M23.1178 25.878C20.3382 24.8639 17.1455 25.0411 14.3823 26.6352C11.6192 28.2294 9.86929 30.9039 9.35835 33.8166C9.11936 33.6545 8.87589 33.5063 8.62845 33.3741C7.06574 32.5392 5.70967 31.272 4.75847 29.6256C2.04379 24.9267 3.65479 18.9184 8.35673 16.2055C13.0587 13.4927 19.071 15.1026 21.7858 19.8014C22.7369 21.4478 23.157 23.2551 23.0991 25.0249C23.09 25.3051 23.0967 25.59 23.1178 25.878Z" fill="url(#paint4_linear_1_7609)"/>
<path d="M18.9416 31.4379C16.0269 31.9485 13.3507 33.6973 11.7554 36.4586C10.1601 39.2198 9.98276 42.4104 10.9976 45.1882C10.7095 45.1671 10.4244 45.1604 10.144 45.1695C8.37292 45.2274 6.56451 44.8076 4.91698 43.857C0.21504 41.144 -1.39596 35.1358 1.3187 30.4369C4.03336 25.7382 10.0457 24.1281 14.7476 26.8411C16.3952 27.7916 17.6632 29.1468 18.4986 30.7083C18.6309 30.9556 18.7794 31.199 18.9416 31.4379Z" fill="url(#paint5_linear_1_7609)"/>
<path d="M18.1065 38.3394C15.8378 40.238 14.395 43.0897 14.395 46.278C14.395 49.4665 15.8378 52.3182 18.1065 54.2168C17.8465 54.3425 17.5963 54.4792 17.358 54.6272C15.8531 55.5621 14.0769 56.1021 12.1745 56.1021C6.74521 56.1021 2.34387 51.7038 2.34387 46.278C2.34387 40.8522 6.74521 36.4539 12.1745 36.4539C14.0769 36.4539 15.8531 36.9939 17.358 37.929C17.5963 38.077 17.8465 38.2135 18.1065 38.3394Z" fill="url(#paint6_linear_1_7609)"/>
<path d="M20.8362 44.7332C19.8212 47.5109 19.9985 50.7015 21.5939 53.4627C23.1892 56.2242 25.8654 57.9728 28.7801 58.4834C28.6178 58.7224 28.4695 58.9657 28.3373 59.213C27.5018 60.7746 26.2337 62.1297 24.5863 63.0803C19.8843 65.7932 13.8719 64.1832 11.1573 59.4844C8.44259 54.7855 10.0536 48.7773 14.7555 46.0643C16.4031 45.1137 18.2115 44.6939 19.9826 44.7519C20.2629 44.7609 20.548 44.7542 20.8362 44.7332Z" fill="url(#paint7_linear_1_7609)"/>
<path d="M26.3996 48.9065C26.9106 51.8192 28.6605 54.4937 31.4236 56.0878C34.1867 57.682 37.3796 57.8592 40.1592 56.8451C40.1381 57.1331 40.1314 57.4178 40.1405 57.6982C40.1984 59.468 39.7784 61.2753 38.8272 62.9217C36.1124 67.6206 30.1001 69.2304 25.3981 66.5175C20.6961 63.8047 19.0852 57.7964 21.7999 53.0975C22.7511 51.4511 24.1071 50.1839 25.6698 49.349C25.9172 49.2168 26.1607 49.0685 26.3996 48.9065Z" fill="url(#paint8_linear_1_7609)"/>
<path d="M33.3057 49.741C35.2055 52.0082 38.0591 53.4499 41.2497 53.4499C44.4404 53.4499 47.294 52.0082 49.1938 49.741C49.3195 50.0008 49.4562 50.2508 49.6044 50.4889C50.54 51.9927 51.0804 53.7678 51.0804 55.669C51.0804 61.0947 46.6791 65.4931 41.2497 65.4931C35.8204 65.4931 31.4191 61.0947 31.4191 55.669C31.4191 53.7678 31.9594 51.9927 32.895 50.4889C33.0433 50.2508 33.1799 50.0008 33.3057 49.741Z" fill="url(#paint9_linear_1_7609)"/>
<path d="M39.7039 47.0131C42.4835 48.0272 45.6761 47.85 48.4392 46.2559C51.2023 44.6616 52.9523 41.9872 53.4632 39.0745C53.7022 39.2364 53.9456 39.3848 54.1931 39.517C55.7559 40.3519 57.1119 41.6191 58.0631 43.2655C60.7779 47.9644 59.1668 53.9727 54.4649 56.6856C49.7629 59.3984 43.7507 57.7885 41.0359 53.0896C40.0847 51.4433 39.6646 49.636 39.7224 47.8661C39.7317 47.586 39.7249 47.3011 39.7039 47.0131Z" fill="url(#paint10_linear_1_7609)"/>
<path d="M51.072 36.4223C51.07 36.4257 51.068 36.4292 51.066 36.4326C49.4709 39.1939 46.7946 40.9427 43.88 41.4533C44.0421 41.6922 44.1905 41.9355 44.3228 42.1827C45.1583 43.7444 46.4263 45.0996 48.0738 46.0501C52.7758 48.7631 58.7881 47.153 61.5028 42.4543C63.8301 38.4258 62.9781 33.4349 59.7247 30.3833C58.2955 33.811 54.9789 36.2559 51.072 36.4223Z" fill="url(#paint11_linear_1_7609)"/>
<path d="M85.872 17.8692V47.2106H79.365V17.8692H85.872ZM80.3965 47.2106L80.5155 41.4612H97.3781V47.2106H80.3965ZM98.3965 37.2582C98.3965 35.17 98.833 33.3461 99.7059 31.7865C100.579 30.2004 101.809 28.9713 103.396 28.099C104.983 27.2267 106.834 26.7905 108.951 26.7905C111.067 26.7905 112.905 27.2267 114.465 28.099C116.053 28.9713 117.283 30.2004 118.155 31.7865C119.028 33.3461 119.465 35.17 119.465 37.2582C119.465 39.3465 119.028 41.1705 118.155 42.7301C117.283 44.2897 116.053 45.5055 114.465 46.3778C112.905 47.2501 111.067 47.6863 108.951 47.6863C106.834 47.6863 104.983 47.2501 103.396 46.3778C101.809 45.5055 100.579 44.2897 99.7059 42.7301C98.833 41.1705 98.3965 39.3465 98.3965 37.2582ZM104.546 37.2186C104.546 38.2231 104.731 39.1087 105.102 39.8753C105.472 40.6154 105.988 41.1968 106.649 41.6199C107.311 42.0163 108.078 42.2146 108.951 42.2146C109.823 42.2146 110.59 42.0163 111.252 41.6199C111.913 41.1968 112.416 40.6154 112.76 39.8753C113.13 39.1087 113.315 38.2231 113.315 37.2186C113.315 36.2141 113.13 35.3418 112.76 34.6017C112.416 33.8616 111.913 33.2933 111.252 32.8967C110.59 32.4738 109.823 32.2622 108.951 32.2622C108.078 32.2622 107.311 32.4738 106.649 32.8967C105.988 33.2933 105.472 33.8616 105.102 34.6017C104.731 35.3418 104.546 36.2141 104.546 37.2186ZM120.845 36.9412C120.845 34.9057 121.255 33.1215 122.075 31.5882C122.895 30.0552 124.019 28.8656 125.447 28.0197C126.875 27.1473 128.515 26.7112 130.367 26.7112C131.928 26.7112 133.303 27.0284 134.493 27.6629C135.71 28.2973 136.53 29.13 136.953 30.1608L136.358 30.5574L136.834 27.3854H142.349V45.9417C142.349 48.2679 141.9 50.2769 141 51.9686C140.101 53.6867 138.818 55.0085 137.152 55.9336C135.512 56.8588 133.554 57.3214 131.279 57.3214C129.375 57.3214 127.656 56.9381 126.122 56.1715C124.614 55.4314 123.384 54.374 122.432 52.9995C121.506 51.6249 120.95 50.039 120.765 48.2414H126.955C127.008 49.3781 127.457 50.2504 128.304 50.8585C129.177 51.4664 130.288 51.7704 131.637 51.7704C133.144 51.7704 134.308 51.3475 135.128 50.5015C135.948 49.682 136.358 48.5851 136.358 47.2106V43.0075L136.914 43.523C136.49 44.5541 135.67 45.3866 134.454 46.021C133.237 46.6555 131.835 46.9727 130.248 46.9727C128.423 46.9727 126.796 46.5498 125.368 45.7038C123.966 44.858 122.855 43.6817 122.035 42.175C121.241 40.6683 120.845 38.9237 120.845 36.9412ZM127.034 36.7825C127.034 37.7341 127.232 38.5799 127.629 39.32C128.026 40.0603 128.555 40.6418 129.216 41.0646C129.878 41.4612 130.605 41.6595 131.399 41.6595C132.351 41.6595 133.184 41.4612 133.898 41.0646C134.639 40.6418 135.208 40.0603 135.604 39.32C136.027 38.5799 136.239 37.7341 136.239 36.7825C136.239 35.8045 136.027 34.9718 135.604 34.2845C135.181 33.5709 134.599 33.0156 133.858 32.6192C133.144 32.2227 132.311 32.0244 131.359 32.0244C130.565 32.0244 129.838 32.2227 129.177 32.6192C128.515 33.0156 127.986 33.5709 127.59 34.2845C127.219 34.9983 127.034 35.8308 127.034 36.7825ZM144.527 37.2582C144.527 35.17 144.963 33.3461 145.836 31.7865C146.709 30.2004 147.939 28.9713 149.526 28.099C151.113 27.2267 152.965 26.7905 155.081 26.7905C157.197 26.7905 159.035 27.2267 160.596 28.099C162.183 28.9713 163.413 30.2004 164.286 31.7865C165.159 33.3461 165.595 35.17 165.595 37.2582C165.595 39.3465 165.159 41.1705 164.286 42.7301C163.413 44.2897 162.183 45.5055 160.596 46.3778C159.035 47.2501 157.197 47.6863 155.081 47.6863C152.965 47.6863 151.113 47.2501 149.526 46.3778C147.939 45.5055 146.709 44.2897 145.836 42.7301C144.963 41.1705 144.527 39.3465 144.527 37.2582ZM150.677 37.2186C150.677 38.2231 150.862 39.1087 151.232 39.8753C151.602 40.6154 152.118 41.1968 152.78 41.6199C153.441 42.0163 154.208 42.2146 155.081 42.2146C155.954 42.2146 156.721 42.0163 157.382 41.6199C158.043 41.1968 158.546 40.6154 158.89 39.8753C159.26 39.1087 159.445 38.2231 159.445 37.2186C159.445 36.2141 159.26 35.3418 158.89 34.6017C158.546 33.8616 158.043 33.2933 157.382 32.8967C156.721 32.4738 155.954 32.2622 155.081 32.2622C154.208 32.2622 153.441 32.4738 152.78 32.8967C152.118 33.2933 151.602 33.8616 151.232 34.6017C150.862 35.3418 150.677 36.2141 150.677 37.2186ZM168.165 47.2106V27.3854H174.315V47.2106H168.165ZM171.26 24.2926C170.281 24.2926 169.448 23.9621 168.76 23.3013C168.099 22.614 167.768 21.7813 167.768 20.8033C167.768 19.8254 168.099 19.0059 168.76 18.3449C169.448 17.6842 170.281 17.3538 171.26 17.3538C172.212 17.3538 173.019 17.6842 173.68 18.3449C174.368 19.0059 174.712 19.8254 174.712 20.8033C174.712 21.7813 174.368 22.614 173.68 23.3013C173.019 23.9621 172.212 24.2926 171.26 24.2926ZM178.292 56.7267V27.3854H183.887L184.203 29.804C184.759 28.8789 185.646 28.1388 186.861 27.5835C188.079 27.0284 189.389 26.751 190.79 26.751C192.641 26.751 194.255 27.1606 195.63 27.9801C197.006 28.7995 198.09 29.9758 198.884 31.5091C199.677 33.0156 200.1 34.8396 200.155 36.9808C200.207 39.0689 199.862 40.9326 199.122 42.5714C198.381 44.1838 197.311 45.4527 195.908 46.3778C194.506 47.3032 192.814 47.7656 190.83 47.7656C189.454 47.7656 188.171 47.5278 186.981 47.052C185.791 46.5761 184.905 45.9682 184.323 45.2281V56.7267H178.292ZM184.441 37.298C184.441 38.276 184.639 39.1483 185.037 39.9149C185.461 40.655 186.029 41.2366 186.743 41.6595C187.483 42.0561 188.33 42.2542 189.282 42.2542C190.261 42.2542 191.095 42.0428 191.782 41.6199C192.496 41.1968 193.039 40.6154 193.408 39.8753C193.806 39.135 194.004 38.276 194.004 37.298C194.004 36.3198 193.806 35.4608 193.408 34.7206C193.039 33.9805 192.496 33.3989 191.782 32.976C191.095 32.5531 190.261 32.3416 189.282 32.3416C188.33 32.3416 187.483 32.5531 186.743 32.976C186.029 33.3726 185.461 33.9409 185.037 34.6811C184.639 35.4212 184.441 36.2935 184.441 37.298ZM201.201 40.9457H206.718C206.718 41.633 206.941 42.175 207.392 42.5714C207.868 42.968 208.554 43.1662 209.454 43.1662C209.983 43.1662 210.421 43.1001 210.764 42.968C211.135 42.8358 211.413 42.6507 211.596 42.4129C211.809 42.1485 211.914 41.8578 211.914 41.5406C211.914 41.1968 211.796 40.9061 211.558 40.6683C211.345 40.4304 210.975 40.2454 210.446 40.1132L206.956 39.2011C204.997 38.6725 203.609 37.8926 202.789 36.8618C201.968 35.8308 201.559 34.6546 201.559 33.3328C201.559 32.0111 201.89 30.8614 202.551 29.8834C203.238 28.8789 204.165 28.1123 205.328 27.5835C206.492 27.0284 207.8 26.751 209.256 26.751C211.451 26.751 213.25 27.3589 214.652 28.5749C216.08 29.7643 216.835 31.3899 216.914 33.4518H211.398C211.425 32.7645 211.227 32.2227 210.804 31.8261C210.381 31.4032 209.825 31.1918 209.138 31.1918C208.529 31.1918 208.026 31.3504 207.63 31.6676C207.259 31.9583 207.074 32.3681 207.074 32.8967C207.074 33.3989 207.259 33.769 207.63 34.007C208 34.2184 208.502 34.4034 209.138 34.5621L212.668 35.4344C214.309 35.8308 215.552 36.505 216.398 37.4565C217.245 38.4081 217.667 39.6242 217.667 41.1044C217.667 43.1397 216.914 44.7522 215.406 45.9417C213.898 47.1312 211.941 47.7261 209.534 47.7261C207.048 47.7261 205.05 47.1049 203.543 45.8625C202.061 44.5936 201.281 42.9547 201.201 40.9457ZM227.417 47.7261C225.089 47.7261 223.29 46.999 222.02 45.5453C220.752 44.0914 220.116 42.1881 220.116 39.8355V27.3854H226.227V37.6152C226.227 39.4655 226.557 40.7078 227.219 41.3423C227.88 41.9767 228.752 42.2939 229.837 42.2939C231.24 42.2939 232.204 41.8974 232.733 41.1044C233.262 40.3115 233.527 39.1748 233.527 37.6944V27.3854H239.638V47.2106H233.885L233.487 44.9902C232.879 45.8095 232.019 46.4704 230.909 46.9727C229.797 47.4749 228.634 47.7261 227.417 47.7261ZM249.724 47.2106H243.573V27.3854H249.288L249.724 30.7953L249.05 30.0815C249.579 29.077 250.373 28.2708 251.43 27.6629C252.515 27.0284 253.678 26.7112 254.922 26.7112C256.879 26.7112 258.413 27.1473 259.525 28.0197C260.662 28.892 261.482 30.0419 261.983 31.4693H261.031C261.349 30.0419 262.116 28.892 263.333 28.0197C264.551 27.1473 266.004 26.7112 267.698 26.7112C270.263 26.7112 272.155 27.3985 273.372 28.773C274.588 30.1476 275.196 31.9715 275.196 34.2449V47.2106H269.246V35.7516C269.246 34.5091 268.94 33.584 268.332 32.976C267.75 32.3681 266.971 32.0641 265.991 32.0641C265.41 32.0641 264.854 32.1963 264.325 32.4605C263.797 32.6984 263.359 33.1346 263.015 33.769C262.672 34.3771 262.499 35.2494 262.499 36.3859V47.2106H256.469V35.7516C256.469 34.5091 256.178 33.5972 255.596 33.0156C255.013 32.4077 254.234 32.1037 253.254 32.1037C252.673 32.1037 252.104 32.2359 251.548 32.5003C251.019 32.7382 250.583 33.1743 250.24 33.8088C249.897 34.4167 249.724 35.2757 249.724 36.3859V47.2106Z" fill="#1B3D5B"/>
</g>
<defs>
<linearGradient id="paint0_linear_1_7609" x1="45.9454" y1="16.783" x2="45.9454" y2="36.4312" gradientUnits="userSpaceOnUse">
<stop stop-color="#25136D"/>
<stop offset="1" stop-color="#3D9BA2"/>
</linearGradient>
<linearGradient id="paint1_linear_1_7609" x1="34.1629" y1="12.1556" x2="43.9838" y2="29.1772" gradientUnits="userSpaceOnUse">
<stop stop-color="#25136D"/>
<stop offset="1" stop-color="#3D9BA2"/>
</linearGradient>
<linearGradient id="paint2_linear_1_7609" x1="21.6433" y1="14.0355" x2="38.6649" y2="23.8694" gradientUnits="userSpaceOnUse">
<stop stop-color="#25136D"/>
<stop offset="1" stop-color="#3D9BA2"/>
</linearGradient>
<linearGradient id="paint3_linear_1_7609" x1="11.7408" y1="21.919" x2="31.4022" y2="21.919" gradientUnits="userSpaceOnUse">
<stop stop-color="#25136D"/>
<stop offset="1" stop-color="#3D9BA2"/>
</linearGradient>
<linearGradient id="paint4_linear_1_7609" x1="7.10901" y1="33.6941" x2="24.1306" y2="23.8601" gradientUnits="userSpaceOnUse">
<stop stop-color="#25136D"/>
<stop offset="1" stop-color="#3D9BA2"/>
</linearGradient>
<linearGradient id="paint5_linear_1_7609" x1="8.98825" y1="46.2059" x2="18.8092" y2="29.1843" gradientUnits="userSpaceOnUse">
<stop stop-color="#25136D"/>
<stop offset="1" stop-color="#3D9BA2"/>
</linearGradient>
<linearGradient id="paint6_linear_1_7609" x1="16.8756" y1="56.1021" x2="16.8756" y2="36.4539" gradientUnits="userSpaceOnUse">
<stop stop-color="#25136D"/>
<stop offset="1" stop-color="#3D9BA2"/>
</linearGradient>
<linearGradient id="paint7_linear_1_7609" x1="28.6574" y1="60.7313" x2="18.8365" y2="43.7098" gradientUnits="userSpaceOnUse">
<stop stop-color="#25136D"/>
<stop offset="1" stop-color="#3D9BA2"/>
</linearGradient>
<linearGradient id="paint8_linear_1_7609" x1="41.1776" y1="58.8532" x2="24.156" y2="49.0191" gradientUnits="userSpaceOnUse">
<stop stop-color="#25136D"/>
<stop offset="1" stop-color="#3D9BA2"/>
</linearGradient>
<linearGradient id="paint9_linear_1_7609" x1="51.0804" y1="50.971" x2="31.4191" y2="50.971" gradientUnits="userSpaceOnUse">
<stop stop-color="#25136D"/>
<stop offset="1" stop-color="#3D9BA2"/>
</linearGradient>
<linearGradient id="paint10_linear_1_7609" x1="55.7127" y1="39.197" x2="38.6911" y2="49.0309" gradientUnits="userSpaceOnUse">
<stop stop-color="#25136D"/>
<stop offset="1" stop-color="#3D9BA2"/>
</linearGradient>
<linearGradient id="paint11_linear_1_7609" x1="53.8333" y1="26.6853" x2="44.0124" y2="43.7068" gradientUnits="userSpaceOnUse">
<stop stop-color="#25136D"/>
<stop offset="1" stop-color="#3D9BA2"/>
</linearGradient>
<clipPath id="clip0_1_7609">
<rect width="278" height="69" fill="white"/>
</clipPath>
</defs>
</svg>
