<svg width="76" height="26" viewBox="0 0 76 26" fill="none" xmlns="http://www.w3.org/2000/svg">
<path d="M18.22 16.604H23.08V19.88H17.824L17.068 26H13.792L14.548 19.88H8.464L7.708 26H4.432L5.188 19.88H0.328V16.604H5.584L6.412 10.196H1.552V6.92H6.808L7.564 0.799998H10.84L10.084 6.92H16.132L16.888 0.799998H20.164L19.408 6.92H24.232L24.268 10.196H19.012L18.22 16.604ZM14.944 16.604L15.736 10.196H9.688L8.86 16.604H14.944ZM43.8138 16.604H48.6738V19.88H43.4178L42.6618 26H39.3858L40.1418 19.88H34.0578L33.3018 26H30.0258L30.7818 19.88H25.9218V16.604H31.1778L32.0058 10.196H27.1458V6.92H32.4018L33.1578 0.799998H36.4338L35.6777 6.92H41.7258L42.4818 0.799998H45.7578L45.0018 6.92H49.8258L49.8618 10.196H44.6058L43.8138 16.604ZM40.5378 16.604L41.3298 10.196H35.2818L34.4538 16.604H40.5378ZM69.4075 16.604H74.2675V19.88H69.0115L68.2555 26H64.9795L65.7355 19.88H59.6515L58.8955 26H55.6195L56.3755 19.88H51.5155V16.604H56.7715L57.5995 10.196H52.7395V6.92H57.9955L58.7515 0.799998H62.0275L61.2715 6.92H67.3195L68.0755 0.799998H71.3515L70.5955 6.92H75.4195L75.4555 10.196H70.1995L69.4075 16.604ZM66.1315 16.604L66.9235 10.196H60.8755L60.0475 16.604H66.1315Z" fill="#03283C"/>
</svg>
